<svg xmlns="http://www.w3.org/2000/svg" width="44" height="44" fill="none"><rect width="44" height="44" fill="#fff" rx="22"/><path stroke="#2B2B2B" stroke-linecap="round" stroke-linejoin="round" stroke-miterlimit="10" stroke-width="1.5" d="M17.5 17.67v-.97c0-2.25 1.81-4.46 4.06-4.67a4.5 4.5 0 0 1 4.94 4.48v1.38M19 32h6c4.02 0 4.74-1.61 4.95-3.57l.75-6c.27-2.44-.43-4.43-4.7-4.43h-8c-4.27 0-4.97 1.99-4.7 4.43l.75 6c.21 1.96.93 3.57 4.95 3.57Z"/><path stroke="#2B2B2B" stroke-linecap="round" stroke-linejoin="round" stroke-width="2" d="M25.495 22h.01M18.494 22h.01"/></svg>