<svg xmlns="http://www.w3.org/2000/svg" width="24" height="24" fill="none"><path fill="#707B81" d="m18.24 8.975-.845.096.845-.096Zm.447 3.94.844-.096-.844.096Zm-13.374 0-.844-.096.844.096Zm.447-3.94.845.096-.845-.096Zm-1.312 5.897-.647-.55.647.55Zm15.104 0-.647.551.647-.55ZM14.27 4.374h-.85a.85.85 0 0 0 .575.804l.275-.804Zm-4.54 0 .275.804a.85.85 0 0 0 .575-.804h-.85Zm6.066 15.924a.85.85 0 1 0-1.592-.596l1.592.596Zm-6-.596a.85.85 0 1 0-1.592.596l1.592-.596Zm7.981-2.552H6.223v1.7h11.554v-1.7Zm-.382-8.079.447 3.94 1.69-.192-.448-3.94-1.689.192Zm-11.237 3.94.447-3.94-1.69-.192-.446 3.94 1.689.192Zm-1.063 2.412a4.505 4.505 0 0 0 1.063-2.412l-1.69-.192a2.806 2.806 0 0 1-.667 1.502l1.294 1.102Zm12.747-2.412c.1.886.473 1.72 1.063 2.412l1.294-1.102a2.806 2.806 0 0 1-.668-1.502l-1.689.192ZM6.222 17.15c-.62 0-1.05-.306-1.244-.65-.187-.33-.186-.721.117-1.077l-1.294-1.102c-.795.933-.82 2.106-.302 3.018.51.897 1.516 1.511 2.724 1.511v-1.7Zm11.555 1.7c1.208 0 2.215-.614 2.724-1.511.518-.912.493-2.085-.302-3.018l-1.294 1.102c.303.356.304.747.117 1.077-.195.344-.624.65-1.245.65v1.7ZM15.12 4.374V4.27h-1.7v.104h1.7Zm3.964 4.505c-.284-2.505-2.141-4.489-4.539-5.31l-.55 1.609c1.887.646 3.202 2.15 3.4 3.893l1.69-.192ZM10.58 4.374V4.27h-1.7v.104h1.7ZM6.605 9.07c.198-1.744 1.513-3.247 3.4-3.893l-.55-1.609C7.057 4.39 5.2 6.374 4.915 8.88l1.69.192ZM12 2.85c.784 0 1.42.636 1.42 1.42h1.7A3.12 3.12 0 0 0 12 1.15v1.7Zm0-1.7a3.12 3.12 0 0 0-3.12 3.12h1.7c0-.784.636-1.42 1.42-1.42v-1.7Zm2.204 18.552c-.308.82-1.16 1.448-2.204 1.448v1.7c1.726 0 3.23-1.042 3.796-2.552l-1.592-.596ZM12 21.15c-1.044 0-1.896-.628-2.204-1.448l-1.592.596c.566 1.51 2.07 2.552 3.796 2.552v-1.7Z"/></svg>