<svg width="330" height="248" viewBox="0 0 330 248" fill="none" xmlns="http://www.w3.org/2000/svg">
<path opacity="0.1" fill-rule="evenodd" clip-rule="evenodd" d="M226.804 28.2237C243.23 26.6373 257.12 31.4196 271.122 37.0094C317.045 55.3738 336.472 91.0137 312.389 131.989C274.917 195.55 174.403 247.628 90.0649 241.62C71.3895 240.308 46.3544 240.334 25.7759 224.19C6.6342 209.179 4.49289 188.492 9.54279 168.371C14.6658 147.747 27.2632 127.679 37.6752 114.46C83.2119 56.7715 182.016 -3.57737 280.424 7.48535C282.443 7.68159 284.287 6.61105 284.645 5.08034C285.003 3.54963 283.81 2.12571 281.931 1.91022C180.633 -9.47219 78.6146 52.3233 31.7449 111.694C18.7948 128.173 2.56937 154.937 0.41897 180.61C-1.00345 198.151 4.04784 215.184 20.6545 228.317C42.5173 245.523 69.1607 245.809 88.9872 247.215C176.056 253.426 280.048 199.751 318.656 134.118C344.592 90.0699 323.936 51.6931 274.551 31.9572C259.486 25.8748 244.291 20.9185 226.461 22.6422C224.496 22.8331 222.983 24.2379 223.193 25.7624C223.264 27.3062 224.978 28.3955 226.804 28.2237Z" fill="#3B3B3B"/>
</svg>
