<svg aria-hidden="true" style="position: absolute; width: 0; height: 0; overflow: hidden;" version="1.1" xmlns="http://www.w3.org/2000/svg" xmlns:xlink="http://www.w3.org/1999/xlink">
<defs>
<symbol id="addToBasketIcon" viewBox="0 0 32 32">
<path fill="#0d6efd" style="fill: var(--color1, #0d6efd)" d="M0.889 32h8.889c6.627 0 9.94 0 12.554-1.083 3.497-1.474 6.223-4.201 7.663-7.604l0.035-0.093c1.082-2.612 1.082-5.925 1.082-12.553v-10.222h-11.556c-5.798 0-8.698 0-10.985 0.948-3.059 1.29-5.444 3.675-6.704 6.653l-0.031 0.082c-0.948 2.287-0.948 5.187-0.948 10.985v12.889z"></path>
<path fill="none" stroke="#fff" style="stroke: var(--color2, #fff)" stroke-linejoin="miter" stroke-linecap="round" stroke-miterlimit="4" stroke-width="1.3333" d="M16 10.667v10.667M10.667 16h10.667"></path>
</symbol>
<symbol id="backIcon" viewBox="0 0 32 32">
<path d="M19.292 8.552c0.23 0.185 0.375 0.466 0.375 0.781 0 0.237-0.083 0.455-0.221 0.627l0.002-0.002-4.835 6.043 4.835 6.041c0.137 0.17 0.219 0.388 0.219 0.625 0 0.553-0.448 1.001-1.001 1.001-0.315 0-0.596-0.146-0.78-0.373l-0.002-0.002-5.333-6.667c-0.137-0.17-0.22-0.388-0.22-0.625s0.083-0.456 0.221-0.627l-0.002 0.002 5.333-6.667c0.185-0.23 0.466-0.376 0.781-0.376 0.238 0 0.456 0.083 0.627 0.221l-0.002-0.002z"></path>
</symbol>
<symbol id="basket" viewBox="0 0 32 32">
<path fill="#fff" style="fill: var(--color2, #fff)" d="M16 0c8.837 0 16 7.163 16 16s-7.163 16-16 16c-8.837 0-16-7.163-16-16s7.163-16 16-16z"></path>
<path fill="none" stroke="#2b2b2b" style="stroke: var(--color3, #2b2b2b)" stroke-linejoin="round" stroke-linecap="round" stroke-miterlimit="10" stroke-width="1.0909" d="M12.727 12.851v-0.705c0-1.636 1.316-3.244 2.953-3.396 0.096-0.010 0.207-0.016 0.32-0.016 1.807 0 3.273 1.465 3.273 3.273 0 0 0 0.001 0 0.001v-0 1.004M13.818 23.273h4.364c2.924 0 3.447-1.171 3.6-2.596l0.545-4.364c0.196-1.775-0.313-3.222-3.418-3.222h-5.818c-3.105 0-3.615 1.447-3.418 3.222l0.545 4.364c0.153 1.425 0.676 2.596 3.6 2.596z"></path>
<path fill="none" stroke="#2b2b2b" style="stroke: var(--color3, #2b2b2b)" stroke-linejoin="round" stroke-linecap="round" stroke-miterlimit="4" stroke-width="1.4545" d="M18.542 16h0.007M13.45 16h0.007"></path>
</symbol>
<symbol id="basketWhite" viewBox="0 0 32 32">
<path fill="none" stroke="#fff" style="stroke: var(--color2, #fff)" stroke-linejoin="round" stroke-linecap="round" stroke-miterlimit="10" stroke-width="2" d="M10 10.227v-1.293c0-3 2.413-5.947 5.413-6.227 0.176-0.018 0.38-0.029 0.587-0.029 3.314 0 6 2.686 6 6 0 0.001 0 0.001 0 0.002v-0 1.84M12 29.333h8c5.36 0 6.32-2.147 6.6-4.76l1-8c0.36-3.253-0.573-5.907-6.267-5.907h-10.667c-5.693 0-6.627 2.653-6.267 5.907l1 8c0.28 2.613 1.24 4.76 6.6 4.76z"></path>
<path fill="none" stroke="#fff" style="stroke: var(--color2, #fff)" stroke-linejoin="round" stroke-linecap="round" stroke-miterlimit="4" stroke-width="2.6667" d="M20.66 16h0.013M11.327 16h0.011"></path>
</symbol>
<symbol id="bell" viewBox="0 0 32 32">
<path fill="#707b81" style="fill: var(--color4, #707b81)" d="M24.32 11.967v0zM24.916 17.22v0zM7.084 17.22v0zM7.68 11.967v0zM5.931 19.829v0zM26.069 19.829v0.001zM19.027 5.832h-1.133c0 0.495 0.317 0.915 0.759 1.070l0.008 0.002 0.367-1.072zM12.973 5.832l0.367 1.072c0.45-0.157 0.767-0.577 0.767-1.072v-0h-1.133zM21.061 27.064c0.048-0.121 0.076-0.262 0.076-0.409 0-0.626-0.507-1.133-1.133-1.133-0.487 0-0.903 0.308-1.063 0.739l-0.003 0.008 2.123 0.795zM13.061 26.269c-0.163-0.44-0.578-0.747-1.066-0.747-0.626 0-1.133 0.507-1.133 1.133 0 0.147 0.028 0.287 0.079 0.416l-0.003-0.008 2.123-0.795zM23.703 22.867h-15.405v2.267h15.405v-2.267zM23.193 12.095l0.596 5.253 2.253-0.256-0.597-5.253-2.252 0.256zM8.211 17.348l0.596-5.253-2.253-0.256-0.595 5.253 2.252 0.256zM6.793 20.564c0.755-0.871 1.266-1.973 1.414-3.187l0.003-0.029-2.253-0.256c-0.096 0.775-0.417 1.461-0.893 2.007l0.004-0.004 1.725 1.469zM23.789 17.348c0.133 1.181 0.631 2.293 1.417 3.216l1.725-1.469c-0.473-0.542-0.794-1.228-0.889-1.984l-0.002-0.018-2.252 0.256zM8.296 22.867c-0.827 0-1.4-0.408-1.659-0.867-0.249-0.44-0.248-0.961 0.156-1.436l-1.725-1.469c-1.060 1.244-1.093 2.808-0.403 4.024 0.68 1.196 2.021 2.015 3.632 2.015v-2.267zM23.703 25.133c1.611 0 2.953-0.819 3.632-2.015 0.691-1.216 0.657-2.78-0.403-4.024l-1.725 1.469c0.404 0.475 0.405 0.996 0.156 1.436-0.26 0.459-0.832 0.867-1.66 0.867v2.267zM20.16 5.832v-0.139h-2.267v0.139h2.267zM25.445 11.839c-0.379-3.34-2.855-5.985-6.052-7.080l-0.733 2.145c2.516 0.861 4.269 2.867 4.533 5.191l2.253-0.256zM14.107 5.832v-0.139h-2.267v0.139h2.267zM8.807 12.093c0.264-2.325 2.017-4.329 4.533-5.191l-0.733-2.145c-3.197 1.096-5.673 3.741-6.053 7.083l2.253 0.256zM16 3.8c1.045 0 1.893 0.848 1.893 1.893h2.267c0-2.297-1.863-4.16-4.16-4.16v0 2.267zM16 1.533c-2.297 0-4.16 1.863-4.16 4.16v0h2.267c0-1.045 0.848-1.893 1.893-1.893v-2.267zM18.939 26.269c-0.411 1.093-1.547 1.931-2.939 1.931v2.267c2.301 0 4.307-1.389 5.061-3.403l-2.123-0.795zM16 28.2c-1.392 0-2.528-0.837-2.939-1.931l-2.123 0.795c0.755 2.013 2.76 3.403 5.061 3.403v-2.267z"></path>
</symbol>
<symbol id="Hamburger" viewBox="0 0 32 32">
<path fill="#2b2b2b" style="fill: var(--color3, #2b2b2b)" d="M12.308 6.154h17.231c0.68 0 1.231 0.551 1.231 1.231s-0.551 1.231-1.231 1.231h-17.231c-0.68 0-1.231-0.551-1.231-1.231s0.551-1.231 1.231-1.231z"></path>
<path fill="#2b2b2b" style="fill: var(--color3, #2b2b2b)" d="M3.692 14.769h25.846c0.68 0 1.231 0.551 1.231 1.231s-0.551 1.231-1.231 1.231h-25.846c-0.68 0-1.231-0.551-1.231-1.231s0.551-1.231 1.231-1.231z"></path>
<path fill="#0d6efd" style="fill: var(--color1, #0d6efd)" d="M3.692 23.385h11.077c0.68 0 1.231 0.551 1.231 1.231s-0.551 1.231-1.231 1.231h-11.077c-0.68 0-1.231-0.551-1.231-1.231s0.551-1.231 1.231-1.231z"></path>
</symbol>
<symbol id="heart" viewBox="0 0 32 32">
<path fill="" stroke="" style="" stroke-linejoin="round" stroke-linecap="round" stroke-miterlimit="4" stroke-width="2.72" d="M21.914 3.2c5.080 0 8.486 4.768 8.486 9.208 0 9.013-14.142 16.392-14.4 16.392s-14.4-7.379-14.4-16.392c0-4.44 3.406-9.208 8.486-9.208 2.904 0 4.811 1.448 5.914 2.738 1.102-1.29 3.010-2.738 5.914-2.738z"></path>
</symbol>
<symbol id="home" viewBox="0 0 32 32">
<path d="M30.52 9.71l-14-8.56c-0.143-0.084-0.316-0.134-0.5-0.134s-0.357 0.050-0.505 0.137l0.005-0.003-14 8.56c-0.287 0.179-0.475 0.493-0.475 0.851 0 0.192 0.054 0.371 0.148 0.523l-0.002-0.004c0.178 0.291 0.495 0.482 0.856 0.482 0.19 0 0.368-0.053 0.519-0.145l-0.004 0.002 0.48-0.3v16.88c-0.001 0.021-0.001 0.046-0.001 0.071 0 1.59 1.267 2.885 2.847 2.929l0.004 0h20.3c1.566-0.066 2.811-1.351 2.811-2.928 0-0.025-0-0.051-0.001-0.076l0 0.004v-16.88l0.48 0.3c0.146 0.088 0.322 0.14 0.51 0.14 0.003 0 0.007-0 0.010-0h-0.001c0.549-0.004 0.993-0.45 0.993-1 0-0.357-0.187-0.671-0.469-0.848l-0.004-0.002zM27 28c0.001 0.019 0.002 0.042 0.002 0.064 0 0.488-0.372 0.89-0.848 0.936l-0.004 0h-20.3c-0.48-0.046-0.852-0.448-0.852-0.936 0-0.023 0.001-0.045 0.002-0.067l-0 0.003v-18.1l11-6.73 11 6.73z"></path>
</symbol>
<symbol id="microphone" viewBox="0 0 32 32">
<path fill="none" opacity="0.2" stroke="#707b81" style="stroke: var(--color4, #707b81)" stroke-linejoin="miter" stroke-linecap="butt" stroke-miterlimit="4" stroke-width="1.7143" d="M1.143 2.286v27.429"></path>
<path fill="none" stroke="#707b81" style="stroke: var(--color4, #707b81)" stroke-linejoin="round" stroke-linecap="round" stroke-miterlimit="4" stroke-width="1.7143" d="M30.857 14.857v1.143c0 4.418-3.582 8-8 8v0M14.857 14.857v1.143c0 4.418 3.582 8 8 8v0M22.857 24v3.429M22.857 27.429h3.429M22.857 27.429h-3.429M22.857 20.571c-2.525 0-4.571-2.047-4.571-4.571v0-6.857c0-2.525 2.047-4.571 4.571-4.571s4.571 2.047 4.571 4.571v0 6.857c0 2.525-2.047 4.571-4.571 4.571v0z"></path>
</symbol>
<symbol id="people" viewBox="0 0 32 32">
<path fill="" style="" d="M16.213 15.493c-0.040 0-0.067 0-0.107 0-0.067-0.013-0.16-0.013-0.24 0-3.867-0.12-6.787-3.16-6.787-6.907 0-3.813 3.107-6.92 6.92-6.92s6.92 3.107 6.92 6.92c-0.013 3.747-2.947 6.787-6.667 6.907-0.013 0-0.027 0-0.040 0zM15.999 3.667c-2.707 0-4.92 2.213-4.92 4.92 0 2.667 2.080 4.813 4.733 4.907 0.067-0.013 0.253-0.013 0.427 0 2.613-0.12 4.667-2.267 4.68-4.907 0-2.707-2.213-4.92-4.92-4.92z"></path>
<path fill="" style="" d="M16.226 30.067c-2.613 0-5.24-0.667-7.227-2-1.853-1.227-2.867-2.907-2.867-4.733s1.013-3.52 2.867-4.76c4-2.653 10.48-2.653 14.453 0 1.84 1.227 2.867 2.907 2.867 4.733s-1.013 3.52-2.867 4.76c-2 1.333-4.613 2-7.227 2zM10.106 20.253c-1.28 0.853-1.973 1.947-1.973 3.093 0 1.133 0.707 2.227 1.973 3.067 3.32 2.227 8.92 2.227 12.24 0 1.28-0.853 1.973-1.947 1.973-3.093 0-1.133-0.707-2.227-1.973-3.067-3.32-2.213-8.92-2.213-12.24 0z"></path>
</symbol>
<symbol id="bin" viewBox="0 0 32 32">
<path d="M4 10v20c0 1.1 0.9 2 2 2h18c1.1 0 2-0.9 2-2v-20h-22zM10 28h-2v-14h2v14zM14 28h-2v-14h2v14zM18 28h-2v-14h2v14zM22 28h-2v-14h2v14z"></path>
<path d="M26.5 4h-6.5v-2.5c0-0.825-0.675-1.5-1.5-1.5h-7c-0.825 0-1.5 0.675-1.5 1.5v2.5h-6.5c-0.825 0-1.5 0.675-1.5 1.5v2.5h26v-2.5c0-0.825-0.675-1.5-1.5-1.5zM18 4h-6v-1.975h6v1.975z"></path>
</symbol>
<symbol id="plus" viewBox="0 0 32 32">
<path d="M31 12h-11v-11c0-0.552-0.447-1-1-1h-6c-0.553 0-1 0.448-1 1v11h-11c-0.553 0-1 0.448-1 1v6c0 0.553 0.447 1 1 1h11v11c0 0.553 0.447 1 1 1h6c0.553 0 1-0.447 1-1v-11h11c0.553 0 1-0.447 1-1v-6c0-0.552-0.447-1-1-1z"></path>
</symbol>
<symbol id="nikeLogo" viewBox="0 0 32 32">
<path d="M15.996 15.134l-5.516 1.444c-1.948 0.482-3.652 1.124-5.294 0.562-2.232-0.964-2.192-3.472-0.528-6.14-2.942 2.428-8.236 10.192-1.076 10.976 0.912 0.12 2.536-0.2 4.3-0.942l24.118-9.874-14.016 3.452-1.988 0.522z"></path>
</symbol>
<symbol id="account" viewBox="0 0 32 32"><path d="M16 .64C7.531.64.64 7.531.64 16c0 4.538 1.98 8.622 5.12 11.436v.011l.223.192c.039.034.082.062.122.095.602.511 1.269.992 1.972 1.419l.069.039c.054.033.11.063.164.095.356.207.721.403 1.094.581l.012.005c.703.345 1.535.662 2.398.906l.107.026.048.013c.41.112.828.206 1.251.284l.118.021c.324.062.748.121 1.178.163l.063.005.143.011c.422.035.847.058 1.277.058s.856-.022 1.277-.058c.048-.004.096-.006.143-.011.419-.038.833-.096 1.241-.168l.118-.021c.521-.095.942-.193 1.356-.309l-.106.025.048-.013c.971-.27 1.803-.587 2.597-.972l-.091.04.012-.005c.458-.22.817-.414 1.166-.621l-.072.039c.055-.032.11-.062.164-.095.386-.232.697-.436.999-.652l-.047.032c.079-.056.159-.111.237-.169.292-.214.576-.437.852-.67.04-.033.083-.061.122-.095l.223-.192v-.011c3.14-2.815 5.12-6.898 5.12-11.436 0-8.469-6.891-15.36-15.36-15.36zM16 16c-2.823 0-5.12-2.297-5.12-5.12S13.177 5.76 16 5.76s5.12 2.297 5.12 5.12S18.823 16 16 16zm1.92 1.28a7.048 7.048 0 0 1 7.04 7.04v2.533l-.082.065a14.66 14.66 0 0 1-.777.588l-.175.125c-.286.195-.58.378-.879.552l-.164.095a13.647 13.647 0 0 1-4.312 1.566l-.086.013-.109.02c-.285.053-.66.104-1.04.14l-.057.004-.153.012c-.373.029-.748.048-1.125.048s-.752-.019-1.125-.049l-.153-.012a14.205 14.205 0 0 1-1.293-.177l.086.013a14.06 14.06 0 0 1-3.423-1.077l.087.036-.103-.047c-.462-.215-.83-.411-1.188-.622l.065.035a13.612 13.612 0 0 1-.879-.552c-.06-.04-.117-.083-.175-.125a13.564 13.564 0 0 1-.802-.607l.025.02-.082-.065V24.32a7.048 7.048 0 0 1 7.04-7.04h3.84zm8.32 8.369V24.32c0-4.013-2.857-7.372-6.643-8.15 1.701-1.167 2.802-3.099 2.803-5.289 0-3.529-2.871-6.4-6.4-6.4s-6.4 2.871-6.4 6.4a6.39 6.39 0 0 0 2.781 5.275l.022.014c-3.786.778-6.643 4.137-6.643 8.15v1.329A14.025 14.025 0 0 1 1.92 16C1.92 8.236 8.236 1.92 16 1.92S30.08 8.236 30.08 16c0 3.732-1.462 7.126-3.84 9.649z"/></symbol>
<symbol id="searchIcon" viewBox="0 0 33 32">
<path d="M13.714 4.571c0.004 0 0.009 0 0.014 0 5.042 0 9.129 4.087 9.129 9.129 0 1.985-0.634 3.823-1.71 5.321l0.019-0.027-0.903 1.269-1.269 0.903c-1.469 1.052-3.303 1.682-5.284 1.682-5.047 0-9.138-4.091-9.138-9.138s4.091-9.138 9.138-9.138c0.001 0 0.003 0 0.004 0h-0zM13.714 0c-0.005 0-0.012 0-0.018 0-7.574 0-13.714 6.14-13.714 13.714s6.14 13.714 13.714 13.714c2.98 0 5.737-0.95 7.986-2.564l-0.041 0.028 6.44 6.441c0.889 0.888 2.331 0.888 3.219 0l0.033-0.033c0.441-0.398 0.717-0.972 0.717-1.61s-0.276-1.212-0.716-1.608l-0.002-0.002-6.441-6.44c1.586-2.207 2.536-4.963 2.536-7.941 0-7.567-6.134-13.701-13.701-13.701-0.005 0-0.009 0-0.014 0h0.001z"></path>
</symbol>
</defs>
</svg>
