<svg width="28" height="28" viewBox="0 0 28 28" fill="none" xmlns="http://www.w3.org/2000/svg">
<g clip-path="url(#clip0_43_6717)">
<path fill-rule="evenodd" clip-rule="evenodd" d="M6.56961 14.7247C6.47606 14.623 6.38178 14.5213 6.28675 14.4203C5.31784 13.3924 4.35692 12.3637 3.46192 11.2686C3.24506 11.0034 2.83869 10.4896 2.41841 10.2145C2.1178 10.0177 1.80102 9.92569 1.50591 9.94831C1.31788 9.96263 1.04011 10.0429 0.884883 10.3941C0.858745 10.4531 0.826089 10.5552 0.80857 10.6867C0.780421 10.8993 0.777922 11.2832 0.780641 11.3365C0.817165 12.1128 0.855407 12.8553 0.955466 13.6265C1.04744 14.3363 1.09874 15.0494 1.2005 15.7585C1.35275 16.8195 1.56614 17.8442 1.90125 18.8642C2.02557 19.243 2.43417 19.4492 2.81291 19.3249C3.19128 19.2005 3.39785 18.7923 3.27353 18.4136C2.96506 17.4741 2.77034 16.5306 2.63047 15.5534C2.52946 14.8508 2.47892 14.1439 2.3877 13.4407C2.32848 12.9832 2.29259 12.5363 2.26555 12.0858L2.34344 12.1827C3.26024 13.3042 4.24339 14.3582 5.23563 15.4108C5.60685 15.805 5.96418 16.2093 6.34184 16.5976C6.37156 16.6462 6.50886 16.8686 6.57798 16.9459C6.69293 17.0747 6.82037 17.1498 6.93262 17.1895C7.21782 17.2908 7.51338 17.2736 7.78664 16.9621C7.9912 16.7287 8.12104 16.3575 8.13559 15.907C8.1558 15.2879 7.96243 14.4606 7.93173 14.0822C7.73722 11.6885 7.34748 9.29424 7.33361 6.88906C7.33143 6.49049 7.00606 6.16879 6.60749 6.17098C6.20891 6.17353 5.88685 6.49886 5.8894 6.89745C5.90324 9.33879 6.29441 11.7693 6.49178 14.1993C6.50257 14.3286 6.53441 14.5135 6.56961 14.7247Z" fill="#3B3B3B"/>
<path fill-rule="evenodd" clip-rule="evenodd" d="M13.3726 5.18832C12.5437 5.36355 11.7147 5.51093 11.0291 6.03947C10.3118 6.59279 9.91899 7.42943 9.74624 8.37522C9.5259 9.58182 9.66873 10.9707 9.75088 11.9594C9.79359 12.4714 9.78684 13.1815 9.90319 13.817C10.0035 14.3633 10.1964 14.858 10.5106 15.2135C11.0044 15.7718 11.8008 15.8661 12.6374 15.5759C13.604 15.2407 14.592 14.4039 14.8746 13.9012C15.0701 13.5538 14.9467 13.113 14.599 12.9178C14.2517 12.7223 13.8112 12.8456 13.6157 13.1929C13.4365 13.5118 12.7772 13.9986 12.164 14.2116C12.0271 14.2589 11.8923 14.2925 11.7663 14.2962C11.7007 14.2983 11.635 14.3044 11.5929 14.2571C11.3867 14.0235 11.3286 13.6579 11.2841 13.2894C11.2216 12.7756 11.224 12.2424 11.1906 11.8394C11.1169 10.9552 10.9702 9.71371 11.1671 8.63464C11.2727 8.05606 11.4723 7.52202 11.9115 7.18346C12.421 6.79062 13.0545 6.73201 13.6711 6.60169C14.0611 6.51952 14.3109 6.13591 14.2284 5.74592C14.1462 5.35594 13.7626 5.10615 13.3726 5.18832Z" fill="#3B3B3B"/>
<path fill-rule="evenodd" clip-rule="evenodd" d="M13.124 8.98615C12.4728 9.29913 11.7775 9.6196 11.0861 9.82893C10.7045 9.94443 10.4884 10.3478 10.6036 10.7294C10.7191 11.1109 11.1225 11.327 11.504 11.2115C12.2656 10.9811 13.0328 10.6328 13.7496 10.2885C14.1087 10.1158 14.2605 9.68381 14.0878 9.32468C13.9151 8.96519 13.4835 8.81385 13.124 8.98615Z" fill="#3B3B3B"/>
<path fill-rule="evenodd" clip-rule="evenodd" d="M21.816 9.81134C21.3218 9.14771 20.7971 8.49267 20.2383 7.89012C20.1927 7.84117 19.6246 7.32275 19.2815 7.12238C19.0501 6.98733 18.8406 6.95428 18.7167 6.95993C18.3561 6.97633 18.1273 7.15961 18.0206 7.48757C17.9186 7.80203 17.8707 8.13261 17.8535 8.47161C17.3709 7.44447 16.9351 6.39114 16.6937 5.29307C16.6737 5.20238 16.656 5.15954 16.6531 5.1518C16.5644 4.92601 16.4265 4.84379 16.3775 4.81165C16.1368 4.65336 15.9119 4.66655 15.719 4.74173C15.6954 4.75065 15.1754 4.9506 15.2677 5.53345C15.2751 5.58046 15.3412 5.9161 15.3588 6.0468C15.3744 6.1604 15.4154 6.26408 15.4756 6.3532C15.9001 7.80586 16.5919 9.19292 17.2546 10.5467C17.3978 10.8392 17.5059 11.1387 17.5711 11.4576C17.5902 11.5508 17.5894 11.7594 17.6051 11.8625C17.632 12.0371 17.6968 12.1564 17.7389 12.2179C17.9577 12.5377 18.245 12.5838 18.5155 12.5183C18.6312 12.4906 18.8634 12.4254 19.019 12.1017C19.369 11.3746 19.3754 10.5523 19.3268 9.72114C19.3125 9.47527 19.2917 9.22907 19.2838 8.98641C19.893 9.6566 20.4578 10.3903 20.9865 11.1219C21.0447 11.2022 21.6373 11.9366 21.7989 12.0497C22.2032 12.3335 22.5375 12.1526 22.6823 12.0421C22.9031 11.8733 23.0854 11.5734 23.1731 11.1841C23.2862 10.6804 23.2528 9.97755 23.2602 9.69589C23.3105 7.80017 23.3424 5.81748 23.0111 3.94722C22.9417 3.55465 22.5667 3.29262 22.1741 3.362C21.7815 3.43138 21.5195 3.80679 21.5889 4.19901C21.9033 5.97512 21.8638 7.85801 21.8162 9.65769C21.8152 9.69922 21.8154 9.75129 21.816 9.81134Z" fill="#3B3B3B"/>
<path fill-rule="evenodd" clip-rule="evenodd" d="M25.0223 3.56841C25.2196 4.84575 25.4178 6.11156 25.5228 7.42001C25.5547 7.81755 25.903 8.11438 26.3005 8.08249C26.6977 8.05058 26.9946 7.70226 26.9627 7.30471C26.8148 5.45932 26.4862 3.69768 26.2289 1.87168C26.1299 1.16592 25.4606 1.22994 25.4195 1.23509C25.3289 1.2464 24.8342 1.32578 24.7889 1.89803C24.786 1.93295 24.7969 2.18153 24.796 2.27766C24.7935 2.49774 24.7783 2.71211 24.7559 2.93154C24.7301 3.18441 24.8378 3.42021 25.0223 3.56841Z" fill="#3B3B3B"/>
<path fill-rule="evenodd" clip-rule="evenodd" d="M26.5109 11.1174C26.5955 10.8982 26.5712 10.6417 26.424 10.4365C26.1913 10.1126 25.7398 10.0387 25.416 10.2714C25.1169 10.4862 25.049 10.763 25.0702 11.1068C25.0949 11.5047 25.4382 11.8078 25.8361 11.7828C26.1999 11.7604 26.4843 11.4711 26.5109 11.1174Z" fill="#3B3B3B"/>
<path fill-rule="evenodd" clip-rule="evenodd" d="M12.1883 24.34C12.1227 24.1805 12.0698 24.0545 12.057 24.0274C11.4506 22.7402 10.7863 21.4666 10.0546 20.246C9.84955 19.9041 9.40576 19.793 9.06379 19.998C8.72182 20.203 8.6107 20.6468 8.81572 20.9888C9.52276 22.168 10.1642 23.3991 10.7505 24.6431C10.7952 24.7379 11.0828 25.5751 11.3006 25.9293C11.498 26.2499 11.76 26.3742 11.9121 26.4047C12.1537 26.4531 12.539 26.3852 12.869 25.9883C13.2999 25.4703 13.8962 24.0583 13.9945 23.8239C14.1748 23.3926 14.332 22.9385 14.4788 22.4965C14.7571 21.6581 14.9363 20.7994 15.1014 19.9335C15.1762 19.5417 14.9188 19.1634 14.5271 19.0886C14.1357 19.0141 13.757 19.2715 13.6826 19.6629C13.5293 20.4662 13.3663 21.2635 13.1081 22.0411C12.9724 22.449 12.8281 22.8687 12.6619 23.2667C12.6117 23.386 12.4153 23.8793 12.1883 24.34Z" fill="#3B3B3B"/>
</g>
<defs>
<clipPath id="clip0_43_6717">
<rect width="26" height="26" fill="white" transform="translate(1.31836) rotate(2.90577)"/>
</clipPath>
</defs>
</svg>
